<svg id="visual" viewBox="0 0 600 600" width="600" height="600" xmlns="http://www.w3.org/2000/svg" xmlns:xlink="http://www.w3.org/1999/xlink" version="1.1"><g transform="translate(317.10135584997454 273.85629537269745)"><path d="M151 -185.4C202 -170.7 254.1 -135.1 262.6 -89.9C271.1 -44.6 235.9 10.3 207.7 58.4C179.6 106.6 158.6 147.9 125.1 198.6C91.7 249.2 45.8 309.1 2.4 305.9C-41.1 302.6 -82.3 236.3 -128.7 189.9C-175.2 143.4 -226.9 117 -259.3 71.5C-291.7 26 -304.7 -38.6 -294.9 -104.3C-285.2 -169.9 -252.8 -236.7 -199.9 -250.7C-146.9 -264.8 -73.5 -226.1 -11.8 -210C50 -193.8 99.9 -200 151 -185.4" fill="#FFF3E1"></path></g></svg>