<svg id="visual" viewBox="0 0 600 600" width="600" height="600" xmlns="http://www.w3.org/2000/svg" xmlns:xlink="http://www.w3.org/1999/xlink" version="1.1"><g transform="translate(332.0953417972868 307.98051400822294)"><path d="M163.2 -238.5C198 -199.5 203.1 -133.6 220.4 -73.3C237.8 -13 267.2 41.7 260.8 92C254.4 142.2 212.2 188 162.7 208.9C113.2 229.9 56.6 225.9 -8.4 237.5C-73.5 249.1 -146.9 276.3 -200.8 256.8C-254.7 237.3 -289 171.2 -309.4 102.1C-329.7 33 -336 -39.1 -300.5 -81.9C-265 -124.7 -187.6 -138.2 -130.5 -170C-73.5 -201.8 -36.7 -251.9 13.8 -270.8C64.3 -289.8 128.5 -277.6 163.2 -238.5" fill="#FFF3E1"></path></g></svg>